# xmcd
#
# Track frame offsets:
#	182
#	19630
#	33747
#	46055
#	59330
#	72510
#	86637
#	97510
#	116657
#	131732
#	146402
#	163080
#	179340
#
# Disc length: 2583 seconds
#
# Revision: 2
# Processed by: cddbd v1.4PL0 Copyright (c) Steve Scherf et al.
# Submitted via: MusicWizard 6.0.0
#
DISCID=ae0a150d
DTITLE=George Moustaki - Tout Reste A Dire
DYEAR=1996
DGENRE=Chanson
TTITLE0=Chaque instant est toute une vie
TTITLE1=Des mots demodes
TTITLE2=Tout reste a dire
TTITLE3=La ruelle
TTITLE4=Les lointains autrefois
TTITLE5=Gentle Jack
TTITLE6=Chanson du mois de juin
TTITLE7=Ave Maria no morro
TTITLE8=Loup blanc
TTITLE9=Demande de reparation pour dommages de guerre
TTITLE10=Il faut voyager
TTITLE11=L'acteur
TTITLE12=As-tu brise un coeur ?
EXTD=
EXTT0=
EXTT1=
EXTT2=
EXTT3=
EXTT4=
EXTT5=
EXTT6=
EXTT7=
EXTT8=
EXTT9=
EXTT10=
EXTT11=
EXTT12=
PLAYORDER=
